<svg width="36" height="36" viewBox="0 0 36 36" fill="none" xmlns="http://www.w3.org/2000/svg">
<path fill-rule="evenodd" clip-rule="evenodd" d="M6.37661 25.1449L16.6374 34.8665L22.4151 29.3928L23.0133 29.9595L16.6374 36L5.18008 25.1449H6.37661ZM24.3448 27.5645L24.943 28.1313L23.5922 29.4111L22.994 28.8443L24.3448 27.5645ZM26.2744 25.7365L26.8726 26.3032L25.5217 27.583L24.9235 27.0163L26.2744 25.7365ZM28.2039 23.9084L28.8021 24.4751L27.4513 25.7549L26.8531 25.1882L28.2039 23.9084ZM29.3811 12.0733L35.6368 18L29.3811 23.9267L28.7829 23.36L34.4404 18L28.7829 12.64L29.3811 12.0733ZM27.4513 10.2451L28.8021 11.5249L28.2039 12.0916L26.8531 10.8118L27.4513 10.2451ZM16.6374 0L23.0133 6.0405L22.4151 6.60724L16.6374 1.13347L6.34341 10.8859H5.14732L16.6374 0ZM25.5217 8.417L26.8726 9.6968L26.2744 10.2635L24.9235 8.98373L25.5217 8.417ZM23.5922 6.58893L24.943 7.86874L24.3448 8.43547L22.994 7.15567L23.5922 6.58893Z" fill="#00B5BF"/>
<path d="M19.9828 12.7936H17.7468C17.5226 12.7936 17.3418 12.9649 17.3418 13.1774V13.9257C17.3268 13.9242 17.315 13.9178 17.3 13.9178H15.618C15.4975 13.9178 15.3837 13.9686 15.3067 14.0558L13.9679 15.5747L7.05422 15.5668C6.83163 15.5668 6.64921 15.738 6.64921 15.9505C6.64921 16.163 6.82996 16.3342 7.05422 16.3342L13.9243 16.3421C13.9294 16.3421 13.9344 16.3421 13.9377 16.3421H14.1553C14.2758 16.3421 14.3896 16.2914 14.4666 16.2042L15.8071 14.6852H17.3C17.315 14.6852 17.3268 14.6789 17.3418 14.6773V15.2973C17.3418 15.5097 17.5226 15.681 17.7468 15.681H19.9828C20.207 15.681 20.3878 15.5097 20.3878 15.2973V13.1789C20.3861 12.9649 20.2054 12.7936 19.9828 12.7936ZM19.5778 14.912H18.1518V13.5611H19.5778V14.912Z" fill="white"/>
<path d="M19.9828 20.3219H17.7468C17.5226 20.3219 17.3418 20.4932 17.3418 20.7056V21.389C17.3268 21.3874 17.315 21.3811 17.3 21.3811H15.8071L14.4666 19.8621C14.3896 19.7733 14.2607 19.7162 14.1536 19.7242L13.9561 19.7257C13.9444 19.7257 13.9344 19.7257 13.921 19.7242L7.29187 19.767H7.28015C7.05589 19.7686 6.87681 19.9414 6.87848 20.1523C6.88016 20.3631 7.06091 20.5328 7.2835 20.5328C7.2835 20.5328 7.28517 20.5328 7.28685 20.5328L13.9695 20.4916L15.3084 22.0105C15.3854 22.0978 15.4992 22.1485 15.6197 22.1485H17.3017C17.3167 22.1485 17.3284 22.1421 17.3435 22.1406V22.8239C17.3435 23.0364 17.5242 23.2076 17.7485 23.2076H19.9844C20.2087 23.2076 20.3894 23.0364 20.3894 22.8239V20.7056C20.3861 20.4947 20.2053 20.3219 19.9828 20.3219ZM19.5777 22.4402H18.1518V21.0893H19.5777V22.4402Z" fill="white"/>
<path d="M23.4103 16.9225H21.1744V19.0408H23.4103V16.9225Z" fill="white"/>
<path d="M23.4103 16.5388H21.1744C20.9501 16.5388 20.7694 16.71 20.7694 16.9225V17.5979H7.09773L5.94797 17.6043C5.71869 17.6058 5.53292 17.7787 5.53458 17.9895C5.53626 18.2004 5.72203 18.3717 5.94964 18.3717H5.95132L20.7677 18.3653V19.0408C20.7677 19.2532 20.9484 19.4245 21.1727 19.4245H23.4103C23.6346 19.4245 23.8153 19.2532 23.8153 19.0408V16.9225C23.8153 16.7116 23.6329 16.5388 23.4103 16.5388ZM23.0053 18.6571H21.5794V17.3062H23.0053V18.6571Z" fill="#00B3BE"/>
<path d="M15.4423 24.3207H13.2064V26.439H15.4423V24.3207Z" fill="white"/>
<path d="M15.4423 23.937H13.3754L11.1428 21.8203C11.0675 21.7489 10.9637 21.7077 10.8566 21.7077H8.69267C8.46841 21.7077 8.28766 21.8789 8.28766 22.0914C8.28766 22.3039 8.46841 22.4751 8.69267 22.4751H10.6893L12.803 24.4793V26.439C12.803 26.6515 12.9838 26.8227 13.208 26.8227H15.444C15.6682 26.8227 15.849 26.6515 15.849 26.439V24.3207C15.8473 24.1082 15.6666 23.937 15.4423 23.937ZM15.0373 26.0553H13.6114V25.1769V24.7044H14.1101H15.0373V26.0553Z" fill="#00B3BE"/>
<path d="M15.4423 9.59239H13.2064V11.7107H15.4423V9.59239Z" fill="white"/>
<path d="M15.4423 9.20868H13.2064C12.9821 9.20868 12.8013 9.37992 12.8013 9.59239V11.587L10.6876 13.5912H8.69099C8.46673 13.5912 8.28598 13.7624 8.28598 13.9749C8.28598 14.1874 8.46673 14.3586 8.69099 14.3586H10.855C10.9621 14.3586 11.0658 14.3174 11.1411 14.246L13.4105 12.0944H15.4423C15.6665 12.0944 15.8473 11.9232 15.8473 11.7107V9.59239C15.8473 9.37992 15.6665 9.20868 15.4423 9.20868ZM15.0373 11.327H14.1168H13.6097V10.8878V9.97451H15.0356V11.327H15.0373Z" fill="#00B3BE"/>
<path d="M12.798 18.3701H0.408358C0.184096 18.3701 0 18.1957 0 17.9832C0 17.7707 0.184096 17.5963 0.408358 17.5963H12.798C13.0223 17.5963 13.2064 17.7707 13.2064 17.9832C13.2064 18.1973 13.0223 18.3701 12.798 18.3701Z" fill="#00B3BE"/>
<path d="M10.6508 14.3586H3.56811C3.34385 14.3586 3.15975 14.1842 3.15975 13.9717C3.15975 13.7593 3.34385 13.5848 3.56811 13.5848H10.6508C10.875 13.5848 11.0591 13.7593 11.0591 13.9717C11.0591 14.1842 10.875 14.3586 10.6508 14.3586Z" fill="#00B3BE"/>
<path d="M10.6508 22.4799H3.56811C3.34385 22.4799 3.15975 22.3055 3.15975 22.093C3.15975 21.8805 3.34385 21.7061 3.56811 21.7061H10.6508C10.875 21.7061 11.0591 21.8805 11.0591 22.093C11.0591 22.3055 10.875 22.4799 10.6508 22.4799Z" fill="#00B3BE"/>
<path d="M9.85247 16.3358H1.7305C1.50624 16.3358 1.32214 16.1614 1.32214 15.9489C1.32214 15.7365 1.50624 15.562 1.7305 15.562H9.85247C10.0767 15.562 10.2608 15.7365 10.2608 15.9489C10.2608 16.1614 10.0767 16.3358 9.85247 16.3358Z" fill="white"/>
<path d="M10.0115 20.5265H1.73217C1.50791 20.5265 1.32381 20.352 1.32381 20.1396C1.32381 19.9271 1.50791 19.7527 1.73217 19.7527H10.0115C10.2357 19.7527 10.4198 19.9271 10.4198 20.1396C10.4181 20.3536 10.2341 20.5265 10.0115 20.5265Z" fill="white"/>
<path fill-rule="evenodd" clip-rule="evenodd" d="M31.3819 18.0743L26.9259 22.296L26.2893 21.6928L30.109 18.0741L26.207 14.3779L26.8435 13.7748L31.3819 18.0743Z" fill="#00B5BF"/>
</svg>
