<svg width="23" height="20" viewBox="0 0 23 20" fill="none" xmlns="http://www.w3.org/2000/svg">
<path fill-rule="evenodd" clip-rule="evenodd" d="M11.5487 3.5C7.51869 3.5 4.2251 6.75267 4.2251 10.7827C4.2251 12.7875 5.04338 14.7309 6.51629 16.1016C7.02772 16.5925 7.82554 16.6334 8.39834 16.2038C10.2395 14.8332 12.7762 14.8332 14.6173 16.2038C15.1901 16.6334 15.9879 16.5925 16.4993 16.1016C19.4247 13.3194 19.5474 8.6961 16.7653 5.77074C15.4151 4.33874 13.5126 3.52046 11.5487 3.5ZM11.5078 14.4445C9.54394 14.5059 7.90737 12.9512 7.86646 11.0077C7.86646 10.9464 7.86646 10.885 7.86646 10.8236C7.86646 8.81884 9.50302 7.18227 11.5078 7.18227C13.5126 7.18227 15.1492 8.81884 15.1492 10.8236C15.2105 12.7875 13.6558 14.4036 11.7124 14.465C11.6306 14.4445 11.5692 14.4445 11.5078 14.4445Z" fill="#00BF7A"/>
</svg>
