<svg width="23" height="20" viewBox="0 0 23 20" fill="none" xmlns="http://www.w3.org/2000/svg">
<path d="M18.799 16.5697L12.1834 3.33859C12.0532 3.05209 11.923 3 11.7667 3C11.6365 3 11.4802 3.05209 11.3239 3.31255C10.3862 4.79713 9.96954 6.51613 9.96954 8.31325C9.96954 10.8136 11.2457 13.1577 13.121 16.9343C13.3294 17.351 13.4857 17.4292 13.8503 17.4292H18.4343C18.7729 17.4292 18.9552 17.299 18.9552 17.0385C18.9552 16.9083 18.9292 16.8301 18.799 16.5697ZM9.18817 10.3187C8.66725 9.53742 8.511 9.48529 8.38075 9.48529C8.25054 9.48529 8.17242 9.53742 7.938 10.0062L4.63023 16.6217C4.52605 16.8301 4.5 16.9083 4.5 17.0125C4.5 17.2208 4.68232 17.4292 5.073 17.4292H9.73513C10.0477 17.4292 10.2821 17.1687 10.4123 16.6738C10.5686 16.0487 10.6207 15.5018 10.6207 14.8507C10.6207 13.0275 9.81325 11.2564 9.18817 10.3187Z" fill="#0075FF"/>
</svg>
