<svg width="29" height="18" viewBox="0 0 29 18" fill="none" xmlns="http://www.w3.org/2000/svg">
<g clip-path="url(#clip0_287_681)">
<path d="M13.7647 11.2387C16.3829 11.2387 18.5054 9.02149 18.5054 6.28637C18.5054 3.55124 16.3829 1.33398 13.7647 1.33398C11.1464 1.33398 9.02393 3.55124 9.02393 6.28637C9.02393 9.02149 11.1464 11.2387 13.7647 11.2387Z" fill="#036C70"/>
<path d="M17.7156 15.3645C20.1156 15.3645 22.0612 13.332 22.0612 10.8248C22.0612 8.31764 20.1156 6.28516 17.7156 6.28516C15.3155 6.28516 13.3699 8.31764 13.3699 10.8248C13.3699 13.332 15.3155 15.3645 17.7156 15.3645Z" fill="#1A9BA1"/>
<path d="M14.3563 18.6663C16.2109 18.6663 17.7143 17.0957 17.7143 15.1583C17.7143 13.2209 16.2109 11.6504 14.3563 11.6504C12.5017 11.6504 10.9983 13.2209 10.9983 15.1583C10.9983 17.0957 12.5017 18.6663 14.3563 18.6663Z" fill="#37C6D0"/>
<path opacity="0.1" d="M14.5538 5.80211V14.6091C14.5518 14.9151 14.3743 15.19 14.1034 15.3066C14.0172 15.3447 13.9245 15.3643 13.8308 15.3643H11.0022C10.9982 15.2942 10.9982 15.2281 10.9982 15.158C10.9969 15.0891 10.9995 15.0202 11.0061 14.9516C11.0784 13.6324 11.8564 12.4685 13.017 11.9431V11.1754C10.434 10.7478 8.67195 8.21385 9.08127 5.51559C9.08411 5.4969 9.08704 5.47822 9.09008 5.45957C9.10975 5.32038 9.13745 5.18257 9.17305 5.04688H13.8308C14.2295 5.04846 14.5523 5.38567 14.5538 5.80211Z" fill="black"/>
<path opacity="0.2" d="M13.4358 5.46094H9.09016C8.65117 8.15434 10.3854 10.7095 12.9637 11.1681C13.0418 11.182 13.1202 11.1939 13.1988 11.2036C11.9741 11.8103 11.0817 13.5333 11.0058 14.953C10.9992 15.0216 10.9966 15.0905 10.9979 15.1593C10.9979 15.2295 10.9979 15.2955 11.0019 15.3657C11.009 15.5044 11.0262 15.6424 11.0532 15.7784H13.4354C13.7284 15.7763 13.9916 15.5909 14.1031 15.3079C14.1396 15.2178 14.1584 15.121 14.1584 15.0232V6.21618C14.1569 5.79989 13.8343 5.46275 13.4358 5.46094Z" fill="black"/>
<path opacity="0.2" d="M13.4358 5.46094H9.09013C8.65123 8.15459 10.3857 10.7099 12.9643 11.1684C13.017 11.1778 13.0699 11.1862 13.1229 11.1937C11.9377 11.8441 11.0805 13.563 11.0062 14.953H13.4358C13.8338 14.9499 14.1558 14.6136 14.1588 14.1978V6.21618C14.1573 5.79973 13.8345 5.46252 13.4358 5.46094Z" fill="black"/>
<path opacity="0.2" d="M13.0406 5.46094H9.09C8.67556 8.00377 10.2008 10.4525 12.5942 11.0868C11.688 12.1685 11.1321 13.5216 11.006 14.953H13.0406C13.4393 14.9514 13.7621 14.6142 13.7636 14.1978V6.21618C13.7634 5.79917 13.4398 5.46117 13.0406 5.46094Z" fill="black"/>
<path d="M5.79788 5.46094H13.0409C13.4409 5.46094 13.7651 5.79962 13.7651 6.21741V13.7838C13.7651 14.2016 13.4409 14.5403 13.0409 14.5403H5.79788C5.39794 14.5403 5.07373 14.2016 5.07373 13.7838V6.21741C5.07373 5.79962 5.39794 5.46094 5.79788 5.46094Z" fill="url(#paint0_linear_287_681)"/>
<path d="M8.30699 9.90828C8.13729 9.79069 7.99554 9.63415 7.89257 9.4506C7.7928 9.25872 7.74308 9.04282 7.74837 8.82453C7.73949 8.52899 7.83496 8.24035 8.01662 8.01358C8.20751 7.78653 8.45425 7.61841 8.7301 7.52742C9.04448 7.41932 9.37376 7.36606 9.70471 7.36977C10.1399 7.35316 10.5745 7.41673 10.9887 7.55755V8.50676C10.8087 8.39289 10.6127 8.30933 10.4079 8.25914C10.1857 8.20221 9.95764 8.17366 9.72881 8.17412C9.48751 8.16487 9.24775 8.21788 9.03073 8.32848C8.94875 8.36541 8.8789 8.42658 8.82977 8.50445C8.78063 8.58232 8.75436 8.6735 8.75419 8.76676C8.75351 8.88239 8.79603 8.99373 8.87271 9.07711C8.96328 9.17542 9.07042 9.25545 9.18876 9.31318C9.32045 9.38169 9.51798 9.47276 9.78136 9.58639C9.81036 9.59596 9.83862 9.60783 9.8659 9.62188C10.1251 9.72771 10.3752 9.85653 10.6134 10.0069C10.7937 10.1231 10.9451 10.2824 11.055 10.4716C11.1677 10.6862 11.2224 10.9287 11.2131 11.1732C11.2259 11.4766 11.1371 11.7753 10.9618 12.0176C10.7871 12.2404 10.5535 12.4046 10.2902 12.4897C9.98043 12.5911 9.65714 12.6402 9.33256 12.635C9.04135 12.6364 8.75056 12.6115 8.46343 12.5607C8.22099 12.5193 7.98439 12.4466 7.75904 12.3444V11.3437C7.97445 11.5044 8.21512 11.6245 8.47015 11.6986C8.72432 11.7813 8.98855 11.8255 9.25474 11.8298C9.50111 11.8461 9.74705 11.7916 9.96585 11.6722C10.0411 11.6278 10.1034 11.563 10.1461 11.4846C10.1888 11.4061 10.2104 11.3171 10.2084 11.2269C10.2089 11.1636 10.1973 11.1008 10.1742 11.0422C10.1512 10.9837 10.1171 10.9306 10.0741 10.886C9.96602 10.7751 9.84089 10.684 9.70394 10.6165C9.54591 10.5339 9.31322 10.4251 9.00586 10.29C8.76135 10.1873 8.52724 10.0595 8.30699 9.90828Z" fill="white"/>
</g>
<defs>
<linearGradient id="paint0_linear_287_681" x1="6.5836" y1="4.86985" x2="12.6348" y2="14.9024" gradientUnits="userSpaceOnUse">
<stop stop-color="#058F92"/>
<stop offset="0.5" stop-color="#038489"/>
<stop offset="1" stop-color="#026D71"/>
</linearGradient>
<clipPath id="clip0_287_681">
<rect width="28" height="18" fill="white" transform="translate(0.5)"/>
</clipPath>
</defs>
</svg>
