<svg width="113" height="70" viewBox="0 0 113 70" fill="none" xmlns="http://www.w3.org/2000/svg">
<path d="M74.0264 4.89496H71.1399C70.8476 4.89496 70.6284 5.11414 70.6284 5.40637V6.4292C70.5919 6.4292 70.5919 6.4292 70.5919 6.4292H68.4361C68.29 6.4292 68.1438 6.50226 68.0342 6.61185L66.3169 8.69404H57.4017C57.1094 8.69404 56.8902 8.91322 56.8902 9.2055C56.8902 9.49773 57.1094 9.71691 57.4017 9.71691H66.5362C66.6823 9.71691 66.8285 9.64385 66.9381 9.53426L68.6554 7.45203H70.5919C70.6284 7.45203 70.6284 7.45203 70.6284 7.45203V8.29222C70.6284 8.58446 70.8476 8.80363 71.1399 8.80363H74.0264C74.3187 8.80363 74.5379 8.58446 74.5379 8.29222V5.40637C74.5379 5.11414 74.3187 4.89496 74.0264 4.89496ZM73.5149 7.7808H71.688V5.95432H73.5149V7.7808Z" fill="white"/>
<path d="M74.0264 15.1233H71.1399C70.8476 15.1233 70.6284 15.3425 70.6284 15.6347V16.548C70.5919 16.548 70.5919 16.548 70.5919 16.548H68.6554L66.9381 14.4658C66.8285 14.3562 66.6823 14.2832 66.5362 14.2832H66.2439L57.694 14.3562C57.4017 14.3562 57.1825 14.5754 57.1825 14.8676C57.1825 15.1599 57.4017 15.379 57.694 15.379L66.2804 15.306L67.9977 17.3516C68.1073 17.4612 68.2534 17.5343 68.3996 17.5343H70.5553C70.5919 17.5343 70.5919 17.5343 70.5919 17.5343V18.4475C70.5919 18.7398 70.8111 18.959 71.1034 18.959H73.9899C74.2822 18.959 74.5014 18.7398 74.5014 18.4475V15.6347C74.538 15.3425 74.3187 15.1233 74.0264 15.1233ZM73.5149 18.0092H71.688V16.1827H73.5149V18.0092Z" fill="white"/>
<path d="M78.4475 10.4841H75.561V13.3699H78.4475V10.4841Z" fill="white"/>
<path d="M78.4475 9.97262H75.561C75.2687 9.97262 75.0495 10.1918 75.0495 10.484V11.3973H55.9402C55.6479 11.3973 55.3921 11.6165 55.3921 11.9087C55.3921 12.2009 55.6479 12.4201 55.9402 12.4201H75.0129V13.3333C75.0129 13.6256 75.2322 13.8448 75.5245 13.8448H78.4109C78.7033 13.8448 78.9225 13.6256 78.9225 13.3333V10.4475C78.959 10.1918 78.7398 9.97262 78.4475 9.97262ZM77.8994 12.8585H76.0725V11.032H77.8994V12.8585Z" fill="#0EC0C0"/>
<path d="M68.1803 20.5297H65.2939V23.4156H68.1803V20.5297Z" fill="white"/>
<path d="M68.1804 20.0183H65.5131L62.6266 17.1324C62.517 17.0228 62.4074 16.9863 62.2612 16.9863H59.4844C59.192 16.9863 58.9728 17.2055 58.9728 17.4977C58.9728 17.79 59.192 18.0092 59.4844 18.0092H62.042L64.7458 20.7489V23.4155C64.7458 23.7078 64.965 23.927 65.2573 23.927H68.1438C68.4361 23.927 68.6554 23.7078 68.6554 23.4155V20.5297C68.6919 20.274 68.4727 20.0183 68.1804 20.0183ZM65.8419 22.9041V21.0411H67.7054V22.9041H65.8419Z" fill="#0EC0C0"/>
<path d="M68.1803 0.547932H65.2939V3.43378H68.1803V0.547932Z" fill="white"/>
<path d="M68.1804 0H65.2939C65.0016 0 64.7823 0.219179 64.7823 0.511416V3.21461L62.0785 5.95434H59.5209C59.2286 5.95434 59.0094 6.17352 59.0094 6.46576C59.0094 6.75799 59.2286 6.97717 59.5209 6.97717H62.2978C62.4439 6.97717 62.5535 6.90411 62.6631 6.83105L65.5862 3.90868H68.2169C68.5092 3.90868 68.7284 3.6895 68.7284 3.39726V0.511416C68.6919 0.255708 68.4727 0 68.1804 0ZM67.6688 2.88585H65.8419V1.05936H67.6688V2.88585Z" fill="#0EC0C0"/>
<path d="M4.22137 62.9268V62.6868L5.57137 61.2768V42.9468L4.22137 41.5068V41.2968H12.8314C17.6014 41.2968 20.3314 43.3968 20.3314 47.1168C20.3314 50.1468 18.3514 52.0968 15.1414 52.6068C16.8514 53.0268 18.2614 54.0168 19.1314 56.7768L20.4814 61.2768L22.2514 62.6868V62.9268H18.4114L16.8514 57.4068C15.8614 54.0168 14.3314 52.9968 11.2114 52.9968H7.91137V61.2768L9.35137 62.6868V62.9268H4.22137ZM12.5914 51.4968C15.8014 51.4968 17.8714 49.9068 17.8714 47.1168C17.8714 44.2968 15.8014 42.7968 12.5914 42.7968H7.91137V51.4968H12.5914ZM27.6631 61.2168L29.0131 62.6868V62.9268H23.9731V62.6868L25.3231 61.2168V43.0068L23.9731 41.5068V41.2968H29.0131V41.5068L27.6631 43.0068V61.2168ZM36.7969 62.9268V62.6868L38.1469 61.2168V42.7068L33.1969 42.9468L31.0369 44.6868H30.7969L31.2169 41.2968H47.3869L47.8369 44.6868H47.5969L45.4069 42.9468L40.4869 42.7068V61.2168L41.8369 62.6868V62.9268H36.7969ZM45.0903 62.9268V62.7168L46.7103 61.2468L54.4803 41.2968H56.1603L64.0203 61.2168L65.6403 62.7168V62.9268H60.4503L60.4203 62.7168L61.5003 61.2768L59.6103 56.4168H50.3703L48.5403 61.3068L49.5603 62.7168L49.5303 62.9268H45.0903ZM50.9403 54.9168H59.0403L54.9303 44.3568L50.9403 54.9168ZM82.5373 63.1968C77.0773 63.1968 72.0373 59.5068 72.0373 52.0968C72.0373 44.6268 77.4673 41.0268 82.8073 41.0268C87.0073 41.0268 89.9773 42.8568 91.2673 45.4368L89.7073 47.7168H89.4673C88.7773 44.5668 86.2873 42.4668 82.8073 42.4668C78.1573 42.4668 74.4973 45.8868 74.4973 52.0368C74.4973 57.6468 77.4673 61.7268 82.5973 61.7268C85.8073 61.7268 87.7873 60.4668 88.9273 58.8168V54.0468L85.2973 53.1768V52.3068H92.4673V52.5768L91.2073 53.9868V59.2068C88.6573 62.4168 85.5373 63.1968 82.5373 63.1968ZM101.596 63.2268C97.2457 63.2268 94.0957 59.8068 94.0957 55.1268C94.0957 50.4768 97.2457 47.0568 101.596 47.0568C105.976 47.0568 109.126 50.4768 109.126 55.1268C109.126 59.8068 105.976 63.2268 101.596 63.2268ZM101.596 61.8768C104.596 61.8768 106.816 59.0568 106.816 55.1268C106.816 51.1968 104.596 48.4068 101.596 48.4068C98.6257 48.4068 96.4057 51.1968 96.4057 55.1268C96.4057 59.0868 98.6257 61.8768 101.596 61.8768Z" fill="white"/>
</svg>
