<svg width="108" height="70" viewBox="0 0 108 70" fill="none" xmlns="http://www.w3.org/2000/svg">
<path d="M60.8671 4.89496H57.9806C57.6883 4.89496 57.4691 5.11414 57.4691 5.40637V6.4292C57.4326 6.4292 57.4326 6.4292 57.4326 6.4292H55.2768C55.1307 6.4292 54.9845 6.50226 54.8749 6.61185L53.1576 8.69404H44.2424C43.9501 8.69404 43.7309 8.91322 43.7309 9.2055C43.7309 9.49773 43.9501 9.71691 44.2424 9.71691H53.3769C53.523 9.71691 53.6692 9.64385 53.7788 9.53426L55.496 7.45203H57.4326C57.4691 7.45203 57.4691 7.45203 57.4691 7.45203V8.29222C57.4691 8.58446 57.6883 8.80363 57.9806 8.80363H60.8671C61.1594 8.80363 61.3786 8.58446 61.3786 8.29222V5.40637C61.3786 5.11414 61.1594 4.89496 60.8671 4.89496ZM60.3556 7.7808H58.5287V5.95432H60.3556V7.7808Z" fill="white"/>
<path d="M60.8671 15.1233H57.9806C57.6883 15.1233 57.4691 15.3425 57.4691 15.6347V16.548C57.4326 16.548 57.4326 16.548 57.4326 16.548H55.4961L53.7788 14.4658C53.6692 14.3562 53.523 14.2832 53.3769 14.2832H53.0846L44.5347 14.3562C44.2424 14.3562 44.0232 14.5754 44.0232 14.8676C44.0232 15.1599 44.2424 15.379 44.5347 15.379L53.1211 15.306L54.8384 17.3516C54.948 17.4612 55.0941 17.5343 55.2403 17.5343H57.396C57.4326 17.5343 57.4326 17.5343 57.4326 17.5343V18.4475C57.4326 18.7398 57.6518 18.959 57.9441 18.959H60.8306C61.1229 18.959 61.3421 18.7398 61.3421 18.4475V15.6347C61.3787 15.3425 61.1594 15.1233 60.8671 15.1233ZM60.3556 18.0092H58.5287V16.1827H60.3556V18.0092Z" fill="white"/>
<path d="M65.2882 10.4841H62.4017V13.3699H65.2882V10.4841Z" fill="white"/>
<path d="M65.2882 9.97262H62.4017C62.1094 9.97262 61.8902 10.1918 61.8902 10.484V11.3973H42.7809C42.4886 11.3973 42.2328 11.6165 42.2328 11.9087C42.2328 12.2009 42.4886 12.4201 42.7809 12.4201H61.8536V13.3333C61.8536 13.6256 62.0729 13.8448 62.3652 13.8448H65.2516C65.5439 13.8448 65.7632 13.6256 65.7632 13.3333V10.4475C65.7997 10.1918 65.5805 9.97262 65.2882 9.97262ZM64.7401 12.8585H62.9132V11.032H64.7401V12.8585Z" fill="#0EC0C0"/>
<path d="M55.021 20.5297H52.1346V23.4156H55.021V20.5297Z" fill="white"/>
<path d="M55.0211 20.0183H52.3538L49.4673 17.1324C49.3577 17.0228 49.2481 16.9863 49.1019 16.9863H46.325C46.0327 16.9863 45.8135 17.2055 45.8135 17.4977C45.8135 17.79 46.0327 18.0092 46.325 18.0092H48.8827L51.5865 20.7489V23.4155C51.5865 23.7078 51.8057 23.927 52.098 23.927H54.9845C55.2768 23.927 55.4961 23.7078 55.4961 23.4155V20.5297C55.5326 20.274 55.3134 20.0183 55.0211 20.0183ZM52.6826 22.9041V21.0411H54.5461V22.9041H52.6826Z" fill="#0EC0C0"/>
<path d="M55.021 0.547932H52.1346V3.43378H55.021V0.547932Z" fill="white"/>
<path d="M55.0211 0H52.1346C51.8423 0 51.623 0.219179 51.623 0.511416V3.21461L48.9192 5.95434H46.3616C46.0693 5.95434 45.8501 6.17352 45.8501 6.46576C45.8501 6.75799 46.0693 6.97717 46.3616 6.97717H49.1385C49.2846 6.97717 49.3942 6.90411 49.5038 6.83105L52.4269 3.90868H55.0576C55.3499 3.90868 55.5691 3.6895 55.5691 3.39726V0.511416C55.5326 0.255708 55.3134 0 55.0211 0ZM54.5095 2.88585H52.6826V1.05936H54.5095V2.88585Z" fill="#0EC0C0"/>
<path d="M1.72137 62.9268V62.6868L3.07137 61.2768V42.9468L1.72137 41.5068V41.2968H10.3314C15.1014 41.2968 17.8314 43.3968 17.8314 47.1168C17.8314 50.1468 15.8514 52.0968 12.6414 52.6068C14.3514 53.0268 15.7614 54.0168 16.6314 56.7768L17.9814 61.2768L19.7514 62.6868V62.9268H15.9114L14.3514 57.4068C13.3614 54.0168 11.8314 52.9968 8.71137 52.9968H5.41137V61.2768L6.85137 62.6868V62.9268H1.72137ZM10.0914 51.4968C13.3014 51.4968 15.3714 49.9068 15.3714 47.1168C15.3714 44.2968 13.3014 42.7968 10.0914 42.7968H5.41137V51.4968H10.0914ZM25.1631 61.2168L26.5131 62.6868V62.9268H21.4731V62.6868L22.8231 61.2168V43.0068L21.4731 41.5068V41.2968H26.5131V41.5068L25.1631 43.0068V61.2168ZM34.2969 62.9268V62.6868L35.6469 61.2168V42.7068L30.6969 42.9468L28.5369 44.6868H28.2969L28.7169 41.2968H44.8869L45.3369 44.6868H45.0969L42.9069 42.9468L37.9869 42.7068V61.2168L39.3369 62.6868V62.9268H34.2969ZM42.5903 62.9268V62.7168L44.2103 61.2468L51.9803 41.2968H53.6603L61.5203 61.2168L63.1403 62.7168V62.9268H57.9503L57.9203 62.7168L59.0003 61.2768L57.1103 56.4168H47.8703L46.0403 61.3068L47.0603 62.7168L47.0303 62.9268H42.5903ZM48.4403 54.9168H56.5403L52.4303 44.3568L48.4403 54.9168ZM80.0373 63.1968C74.5773 63.1968 69.5373 59.5068 69.5373 52.0968C69.5373 44.6268 74.9673 41.0268 80.3073 41.0268C84.5073 41.0268 87.4773 42.8568 88.7673 45.4368L87.2073 47.7168H86.9673C86.2773 44.5668 83.7873 42.4668 80.3073 42.4668C75.6573 42.4668 71.9973 45.8868 71.9973 52.0368C71.9973 57.6468 74.9673 61.7268 80.0973 61.7268C83.3073 61.7268 85.2873 60.4668 86.4273 58.8168V54.0468L82.7973 53.1768V52.3068H89.9673V52.5768L88.7073 53.9868V59.2068C86.1573 62.4168 83.0373 63.1968 80.0373 63.1968ZM99.0957 63.2268C94.7457 63.2268 91.5957 59.8068 91.5957 55.1268C91.5957 50.4768 94.7457 47.0568 99.0957 47.0568C103.476 47.0568 106.626 50.4768 106.626 55.1268C106.626 59.8068 103.476 63.2268 99.0957 63.2268ZM99.0957 61.8768C102.096 61.8768 104.316 59.0568 104.316 55.1268C104.316 51.1968 102.096 48.4068 99.0957 48.4068C96.1257 48.4068 93.9057 51.1968 93.9057 55.1268C93.9057 59.0868 96.1257 61.8768 99.0957 61.8768Z" fill="white"/>
</svg>
