<svg width="175" height="28" viewBox="0 0 175 28" fill="none" xmlns="http://www.w3.org/2000/svg">
<path d="M94.2199 8.55665H91.9554C91.7261 8.55665 91.5541 8.72456 91.5541 8.94845V9.73207C91.5254 9.73207 91.5255 9.73207 91.5255 9.73207H89.8342C89.7196 9.73207 89.6049 9.78804 89.5189 9.872L88.1717 11.4672H81.1776C80.9483 11.4672 80.7763 11.6351 80.7763 11.8591C80.7763 12.0829 80.9483 12.2509 81.1776 12.2509H88.3437C88.4584 12.2509 88.573 12.1949 88.659 12.1109L90.0062 10.5157H91.5255C91.5541 10.5157 91.5541 10.5157 91.5541 10.5157V11.1594C91.5541 11.3833 91.7261 11.5512 91.9554 11.5512H94.2199C94.4492 11.5512 94.6212 11.3833 94.6212 11.1594V8.94845C94.6212 8.72456 94.4492 8.55665 94.2199 8.55665ZM93.8186 10.7676H92.3854V9.36825H93.8186V10.7676Z" fill="black"/>
<path d="M94.2199 16.3929H91.9554C91.7261 16.3929 91.5541 16.5608 91.5541 16.7847V17.4843C91.5255 17.4843 91.5255 17.4843 91.5255 17.4843H90.0062L88.659 15.8891C88.573 15.8052 88.4584 15.7492 88.3437 15.7492H88.1144L81.4069 15.8052C81.1776 15.8052 81.0056 15.9731 81.0056 16.197C81.0056 16.4209 81.1776 16.5888 81.4069 16.5888L88.1431 16.5328L89.4903 18.1C89.5763 18.184 89.6909 18.24 89.8056 18.24H91.4968C91.5255 18.24 91.5255 18.24 91.5255 18.24V18.9396C91.5255 19.1635 91.6974 19.3314 91.9268 19.3314H94.1912C94.4206 19.3314 94.5925 19.1635 94.5925 18.9396V16.7847C94.6212 16.5608 94.4492 16.3929 94.2199 16.3929ZM93.8186 18.6038H92.3854V17.2045H93.8186V18.6038Z" fill="black"/>
<path d="M97.6883 12.8386H95.4238V15.0495H97.6883V12.8386Z" fill="black"/>
<path d="M97.6883 12.4468H95.4238C95.1945 12.4468 95.0225 12.6147 95.0225 12.8386V13.5382H80.031C79.8017 13.5382 79.601 13.7062 79.601 13.93C79.601 14.1539 79.8017 14.3219 80.031 14.3219H94.9938V15.0215C94.9938 15.2454 95.1658 15.4133 95.3951 15.4133H97.6596C97.8889 15.4133 98.0609 15.2454 98.0609 15.0215V12.8106C98.0896 12.6147 97.9176 12.4468 97.6883 12.4468ZM97.2583 14.6577H95.8251V13.2584H97.2583V14.6577Z" fill="#0EC0C0"/>
<path d="M89.6336 20.5348H87.3691V22.7458H89.6336V20.5348Z" fill="black"/>
<path d="M89.6336 20.143H87.5411L85.2766 17.9321C85.1906 17.8481 85.1046 17.8201 84.99 17.8201H82.8115C82.5821 17.8201 82.4102 17.9881 82.4102 18.212C82.4102 18.4358 82.5821 18.6038 82.8115 18.6038H84.818L86.9391 20.7027V22.7457C86.9391 22.9696 87.1111 23.1375 87.3404 23.1375H89.6049C89.8342 23.1375 90.0062 22.9696 90.0062 22.7457V20.5348C90.0349 20.3389 89.8629 20.143 89.6336 20.143ZM87.7991 22.3539V20.9266H89.2609V22.3539H87.7991Z" fill="#0EC0C0"/>
<path d="M89.6336 5.22628H87.3691V7.4372H89.6336V5.22628Z" fill="black"/>
<path d="M89.6336 4.8065H87.3691C87.1398 4.8065 86.9678 4.97441 86.9678 5.1983V7.26929L84.8466 9.36827H82.8401C82.6108 9.36827 82.4388 9.53618 82.4388 9.76008C82.4388 9.98397 82.6108 10.1519 82.8401 10.1519H85.0186C85.1333 10.1519 85.2193 10.0959 85.3053 10.0399L87.5984 7.80103H89.6623C89.8916 7.80103 90.0636 7.63311 90.0636 7.40922V5.1983C90.0349 5.0024 89.8629 4.8065 89.6336 4.8065ZM89.2323 7.01742H87.7991V5.6181H89.2323V7.01742Z" fill="#0EC0C0"/>
<path d="M41.5634 4.94642H38.7829C36.3751 4.94642 35.0566 6.14984 35.0566 8.30478V19.7512C35.0566 21.9341 36.3751 23.1095 38.7829 23.1095H41.5634C43.9712 23.1095 45.2898 21.9061 45.2898 19.7512V8.30478C45.2898 6.14984 43.9712 4.94642 41.5634 4.94642ZM41.764 19.1635C41.764 19.6672 41.5061 19.8911 40.9328 19.8911H39.4995C38.9263 19.8911 38.6683 19.6672 38.6683 19.1635V8.92048C38.6683 8.41673 38.9549 8.19284 39.4995 8.19284H40.9328C41.5061 8.19284 41.764 8.44472 41.764 8.92048V19.1635Z" fill="black"/>
<path d="M65.9568 4.94642H63.7783C63.4343 4.94642 63.205 5.11434 63.119 5.47816L60.8545 16.7287L58.59 5.47816C58.504 5.14233 58.2747 4.97441 57.9308 4.97441H55.7523C55.5229 4.97441 55.3796 5.03038 55.265 5.17032C55.179 5.28226 55.1503 5.45018 55.179 5.67407L59.02 22.6898C59.106 23.0256 59.3353 23.1935 59.6793 23.1935H61.9724C62.3164 23.1935 62.5457 23.0256 62.6317 22.6618L66.5301 5.6181C66.5874 5.42219 66.5587 5.25428 66.4441 5.11434C66.3294 5.0024 66.1861 4.94642 65.9568 4.94642Z" fill="black"/>
<path d="M10.1472 12.5307V12.4468C10.1472 12.3908 10.1472 12.3068 10.1472 12.2509V8.30478C10.1472 6.12185 8.91463 4.94642 6.70747 4.94642H0.515959C0.200651 4.94642 0 5.14233 0 5.45018V22.6058C0 22.9136 0.200651 23.1375 0.515959 23.1375H2.8951C3.21041 23.1375 3.41106 22.9416 3.41106 22.6058V15.6092H4.81562L6.73614 22.6898C6.82213 23.0536 7.08011 23.1095 7.28076 23.1095H9.65991C9.88922 23.1095 10.0039 23.0256 10.0612 22.9416C10.1185 22.8577 10.1759 22.7457 10.1185 22.5218L8.08336 15.3293C8.54199 15.2174 8.94329 15.0215 9.2586 14.7416C9.80323 14.2659 10.0899 13.5102 10.1472 12.5307ZM6.73614 11.6352C6.73614 12.1389 6.47816 12.3908 5.9622 12.3908H3.43973V8.19284H5.99086C6.50682 8.19284 6.7648 8.44471 6.7648 8.94847V11.6352H6.73614Z" fill="black"/>
<path d="M56.5835 22.4659L56.0962 20.2829C56.0962 20.2549 56.0389 20.059 55.8956 19.9471C55.8669 19.9191 55.8383 19.9191 55.8096 19.9191C55.7809 19.8911 55.7523 19.8911 55.7236 19.8911C55.7236 19.8911 55.6949 19.8911 55.6089 19.8911H50.822V5.45018C50.822 5.14233 50.6213 4.94642 50.306 4.94642H47.8982C47.5829 4.94642 47.3823 5.14233 47.3823 5.45018V22.6338C47.3823 22.9416 47.5829 23.1375 47.8982 23.1375H56.0962C56.2109 23.1375 56.2969 23.1095 56.3829 23.0816C56.5262 22.9976 56.5835 22.8857 56.5835 22.8297C56.5835 22.7737 56.5835 22.7177 56.5835 22.6058C56.5835 22.5498 56.5835 22.4938 56.5835 22.4659Z" fill="black"/>
<path d="M22.1003 22.6058C22.1003 22.5498 22.0716 22.5218 22.0716 22.4938L21.5843 20.2829C21.5556 20.143 21.4983 20.059 21.4123 20.0031L21.3836 19.9751C21.355 19.9471 21.3263 19.9471 21.2977 19.9471C21.269 19.9191 21.2403 19.9191 21.2117 19.9191C21.2117 19.9191 21.183 19.9191 21.097 19.9191H15.4788V15.6652H19.6924C20.0078 15.6652 20.2084 15.4693 20.2084 15.1334V12.9225C20.2084 12.5867 20.0078 12.3908 19.6924 12.3908H15.5074V8.22082H21.0683C21.4123 8.22082 21.5843 8.02492 21.5843 7.68908V5.45018C21.5843 5.11434 21.4123 4.94642 21.0683 4.94642H12.6697C12.383 4.94642 12.1824 5.14233 12.1824 5.45018V22.6338C12.1824 22.9416 12.383 23.1375 12.6697 23.1375H21.6416C21.7563 23.1375 21.8423 23.1095 21.9283 23.0816C22.0429 23.0256 22.1003 22.9136 22.1289 22.8297C22.1289 22.7457 22.1289 22.6898 22.1003 22.6058Z" fill="black"/>
<path d="M29.6103 4.94642H27.0305C24.7947 4.94642 23.5908 6.14984 23.5908 8.30478V13.93C23.5908 14.4058 23.8488 14.7136 24.3074 14.8816L29.639 16.5328V19.2754C29.639 19.7512 29.4097 19.9751 28.8651 19.9751H27.7758C27.2598 19.9751 27.0019 19.7512 27.0019 19.2474V17.9601C27.0019 17.9041 27.0019 17.8761 27.0019 17.8761C27.0019 17.8481 27.0019 17.8201 26.9732 17.7921C26.9732 17.7921 26.9445 17.7642 26.9445 17.7082C26.8299 17.5683 26.6292 17.5123 26.6006 17.5123L24.3074 17.0365C24.2787 17.0365 24.2214 17.0085 24.1641 17.0085C24.0781 17.0085 24.0208 16.9805 23.9348 17.0085C23.8774 17.0085 23.7628 17.0645 23.6481 17.2324C23.6195 17.3164 23.5908 17.4003 23.5908 17.5123V19.8631C23.5908 21.9621 24.8234 23.1095 27.0305 23.1095H29.6103C31.8462 23.1095 33.0501 21.9621 33.0501 19.8631V14.8816C33.0501 14.4338 32.8207 14.1259 32.3335 13.93L27.0019 12.2788V8.92048C27.0019 8.44472 27.2598 8.16485 27.7758 8.16485H28.8651C29.381 8.16485 29.639 8.38874 29.639 8.92048V10.7956C29.639 10.8515 29.639 10.8795 29.639 10.8795C29.639 10.9075 29.639 10.9355 29.6677 10.9635C29.6677 10.9635 29.6963 10.9915 29.6963 11.0474C29.811 11.2154 30.0403 11.2713 30.0403 11.2433L32.3335 11.7191C32.3621 11.7191 32.4194 11.7471 32.4768 11.7471C32.5628 11.7471 32.6201 11.7751 32.7061 11.7471C32.7634 11.7471 32.8781 11.6911 32.9927 11.5232C33.0214 11.4393 33.0501 11.3553 33.0501 11.2433V8.30478C33.0501 6.12185 31.8175 4.94642 29.6103 4.94642Z" fill="black"/>
<path d="M78.5691 5.25428C78.5405 5.11434 78.3971 5.0024 78.3685 5.0024C78.2825 4.94643 78.1965 4.94642 78.0818 4.94642H69.0525C68.7659 4.94642 68.5653 5.14233 68.5653 5.45018V22.6338C68.5653 22.9416 68.7659 23.1375 69.0525 23.1375H78.0818C78.1965 23.1375 78.2825 23.1095 78.3685 23.0816C78.5118 22.9976 78.5691 22.8857 78.5691 22.8297C78.5691 22.7737 78.5691 22.7177 78.5691 22.6338C78.5691 22.5778 78.5405 22.5498 78.5405 22.5218L78.0532 20.3389C78.0532 20.3109 77.9958 20.115 77.8525 20.0031C77.8239 19.9751 77.7952 19.9751 77.7665 19.9751C77.7379 19.9471 77.7092 19.9471 77.6805 19.9471C77.6805 19.9471 77.6519 19.9471 77.5659 19.9471H71.8617V15.6652H76.0753C76.3906 15.6652 76.5913 15.4693 76.5913 15.1334V12.9225C76.5913 12.5867 76.3906 12.3908 76.0753 12.3908H71.8617V8.22082H77.4226C77.4799 8.22082 77.5085 8.22082 77.5659 8.22082C77.6232 8.22082 77.6232 8.22082 77.6519 8.22082C77.6805 8.22082 77.7092 8.19284 77.7379 8.19284C77.7379 8.19284 77.7665 8.16485 77.8239 8.16485C77.9672 8.05291 78.0245 7.857 78.0245 7.82902C78.1965 7.10137 78.3398 6.37373 78.5118 5.64608C78.5118 5.6181 78.5405 5.53414 78.5405 5.47816C78.5691 5.33823 78.5691 5.31025 78.5691 5.25428Z" fill="black"/>
<path d="M79.0851 22.0461L79.0564 22.214C79.0564 22.214 79.0564 22.242 79.0851 22.242H79.2571V23.1096C79.2571 23.1376 79.2571 23.1376 79.2857 23.1376H79.4291C79.4577 23.1376 79.4577 23.1376 79.4577 23.1096V22.242H79.6297C79.6584 22.242 79.6584 22.242 79.6584 22.214V22.0741C79.6584 22.0741 79.6584 22.0461 79.6297 22.0461H79.0851Z" fill="black"/>
<path d="M80.3177 22.0461C80.289 22.0461 80.289 22.0461 80.289 22.0741L80.1457 22.7457L80.0024 22.0741C80.0024 22.0461 80.0024 22.0461 79.9737 22.0461H79.8017C79.773 22.0461 79.773 22.0461 79.773 22.0741V23.1096C79.773 23.1376 79.773 23.1376 79.8017 23.1376H79.9164C79.945 23.1376 79.945 23.1376 79.945 23.1096V22.4939L80.0883 23.1096C80.0883 23.1376 80.0884 23.1376 80.117 23.1376H80.1743C80.203 23.1376 80.203 23.1376 80.203 23.1096L80.3463 22.4939V23.1096C80.3463 23.1376 80.3463 23.1376 80.375 23.1376H80.4897C80.5183 23.1376 80.5183 23.1376 80.5183 23.1096V22.0741C80.5183 22.0461 80.5183 22.0461 80.4897 22.0461H80.3177Z" fill="black"/>
<path d="M116.704 12.76C117.312 12.76 117.872 12.696 118.384 12.568C118.912 12.44 119.368 12.24 119.752 11.968C120.136 11.68 120.44 11.32 120.664 10.888C120.888 10.456 121 9.936 121 9.328C121 8.688 120.88 8.16 120.64 7.744C120.416 7.328 120.104 7 119.704 6.76C119.32 6.52 118.872 6.352 118.36 6.256C117.864 6.16 117.344 6.112 116.8 6.112H111.616V12.76H116.704ZM111.616 14.152V22H109.984V4.72H116.752C118.656 4.72 120.112 5.08 121.12 5.8C122.128 6.504 122.632 7.656 122.632 9.256C122.632 10.344 122.408 11.208 121.96 11.848C121.528 12.488 120.816 13.032 119.824 13.48C120.336 13.656 120.736 13.912 121.024 14.248C121.312 14.584 121.528 14.968 121.672 15.4C121.816 15.832 121.904 16.288 121.936 16.768C121.984 17.248 122.016 17.712 122.032 18.16C122.048 18.816 122.072 19.36 122.104 19.792C122.152 20.224 122.2 20.576 122.248 20.848C122.312 21.12 122.384 21.336 122.464 21.496C122.544 21.64 122.64 21.752 122.752 21.832V22H120.952C120.776 21.712 120.648 21.312 120.568 20.8C120.504 20.288 120.448 19.752 120.4 19.192C120.368 18.632 120.336 18.088 120.304 17.56C120.288 17.032 120.248 16.6 120.184 16.264C120.088 15.8 119.928 15.432 119.704 15.16C119.496 14.872 119.24 14.656 118.936 14.512C118.632 14.368 118.288 14.272 117.904 14.224C117.536 14.176 117.152 14.152 116.752 14.152H111.616ZM126.592 22V4.72H128.224V22H126.592ZM131.136 4.72H143.712V6.112H138.24V22H136.608V6.112H131.136V4.72ZM142.244 22L149.036 4.72H150.884L157.508 22H155.828L153.836 16.576H145.964L143.924 22H142.244ZM146.516 15.184H153.284L149.9 6.112L146.516 15.184Z" fill="black"/>
</svg>
