<svg width="24" height="24" viewBox="0 0 24 24" fill="none" xmlns="http://www.w3.org/2000/svg">
<path d="M18.8672 4.93109H15.9808C15.6884 4.93109 15.4692 5.15027 15.4692 5.44251V6.46533C15.4327 6.46533 15.4327 6.46533 15.4327 6.46533H13.2769C13.1308 6.46533 12.9846 6.53839 12.875 6.64798L11.1578 8.73018H2.24252C1.95021 8.73018 1.73099 8.94936 1.73099 9.24163C1.73099 9.53387 1.95021 9.75305 2.24252 9.75305H11.377C11.5231 9.75305 11.6693 9.67999 11.7789 9.5704L13.4962 7.48817H15.4327C15.4692 7.48817 15.4692 7.48817 15.4692 7.48817V8.32835C15.4692 8.62059 15.6884 8.83976 15.9808 8.83976H18.8672C19.1595 8.83976 19.3788 8.62059 19.3788 8.32835V5.44251C19.3788 5.15027 19.1595 4.93109 18.8672 4.93109ZM18.3557 7.81694H16.5288V5.99045H18.3557V7.81694Z" fill="white"/>
<path d="M18.8673 15.1595H15.9808C15.6885 15.1595 15.4692 15.3786 15.4692 15.6709V16.5841C15.4327 16.5841 15.4327 16.5841 15.4327 16.5841H13.4962L11.7789 14.5019C11.6693 14.3923 11.5231 14.3193 11.377 14.3193H11.0847L2.53482 14.3923C2.24252 14.3923 2.02329 14.6115 2.02329 14.9038C2.02329 15.196 2.24252 15.4152 2.53482 15.4152L11.1212 15.3421L12.8385 17.3878C12.9481 17.4974 13.0943 17.5704 13.2404 17.5704H15.3962C15.4327 17.5704 15.4327 17.5704 15.4327 17.5704V18.4837C15.4327 18.7759 15.6519 18.9951 15.9442 18.9951H18.8307C19.123 18.9951 19.3422 18.7759 19.3422 18.4837V15.6709C19.3788 15.3786 19.1596 15.1595 18.8673 15.1595ZM18.3557 18.0453H16.5288V16.2188H18.3557V18.0453Z" fill="white"/>
<path d="M23.2883 10.5202H20.4018V13.406H23.2883V10.5202Z" fill="white"/>
<path d="M23.2883 10.0088H20.4018C20.1095 10.0088 19.8903 10.2279 19.8903 10.5202V11.4334H0.780978C0.488675 11.4334 0.23291 11.6526 0.23291 11.9448C0.23291 12.2371 0.488675 12.4562 0.780978 12.4562H19.8537V13.3695C19.8537 13.6617 20.073 13.8809 20.3653 13.8809H23.2518C23.5441 13.8809 23.7633 13.6617 23.7633 13.3695V10.4836C23.7998 10.2279 23.5806 10.0088 23.2883 10.0088ZM22.7402 12.8946H20.9133V11.0681H22.7402V12.8946Z" fill="#0EC0C0"/>
<path d="M13.0212 20.5659H10.1347V23.4517H13.0212V20.5659Z" fill="white"/>
<path d="M13.0212 20.0544H10.3539L7.46743 17.1686C7.35782 17.059 7.2482 17.0225 7.10205 17.0225H4.32517C4.03287 17.0225 3.81364 17.2416 3.81364 17.5339C3.81364 17.8261 4.03287 18.0453 4.32517 18.0453H6.88282L9.58663 20.785V23.4517C9.58663 23.7439 9.80586 23.9631 10.0982 23.9631H12.9846C13.277 23.9631 13.4962 23.7439 13.4962 23.4517V20.5658C13.5327 20.3101 13.3135 20.0544 13.0212 20.0544ZM10.6828 22.9403V21.0772H12.5462V22.9403H10.6828Z" fill="#0EC0C0"/>
<path d="M13.0212 0.584065H10.1347V3.46991H13.0212V0.584065Z" fill="white"/>
<path d="M13.0212 0.0361328H10.1347C9.84239 0.0361328 9.62315 0.255311 9.62315 0.547549V3.25075L6.91935 5.99047H4.3617C4.0694 5.99047 3.85017 6.20965 3.85017 6.50189C3.85017 6.79413 4.0694 7.01331 4.3617 7.01331H7.13858C7.28473 7.01331 7.39435 6.94025 7.50396 6.86719L10.427 3.94481H13.0577C13.35 3.94481 13.5692 3.72563 13.5692 3.4334V0.547549C13.5327 0.291841 13.3135 0.0361328 13.0212 0.0361328ZM12.5096 2.92198H10.6828V1.09549H12.5096V2.92198Z" fill="#0EC0C0"/>
</svg>
