<svg width="99" height="19" viewBox="0 0 99 19" fill="none" xmlns="http://www.w3.org/2000/svg">
<path d="M94.2199 3.75015H91.9554C91.7261 3.75015 91.5541 3.91807 91.5541 4.14196V4.92557C91.5254 4.92557 91.5255 4.92557 91.5255 4.92557H89.8342C89.7196 4.92557 89.6049 4.98155 89.5189 5.06551L88.1717 6.66073H81.1776C80.9483 6.66073 80.7763 6.82865 80.7763 7.05256C80.7763 7.27645 80.9483 7.44437 81.1776 7.44437H88.3437C88.4584 7.44437 88.573 7.3884 88.659 7.30444L90.0062 5.70919H91.5255C91.5541 5.70919 91.5541 5.70919 91.5541 5.70919V6.35288C91.5541 6.57677 91.7261 6.74469 91.9554 6.74469H94.2199C94.4492 6.74469 94.6212 6.57677 94.6212 6.35288V4.14196C94.6212 3.91807 94.4492 3.75015 94.2199 3.75015ZM93.8186 5.96107H92.3854V4.56175H93.8186V5.96107Z" fill="black"/>
<path d="M94.2199 11.5864H91.9554C91.7261 11.5864 91.5541 11.7543 91.5541 11.9782V12.6778C91.5255 12.6778 91.5255 12.6778 91.5255 12.6778H90.0062L88.659 11.0826C88.573 10.9987 88.4584 10.9427 88.3437 10.9427H88.1144L81.4069 10.9987C81.1776 10.9987 81.0056 11.1666 81.0056 11.3905C81.0056 11.6144 81.1776 11.7823 81.4069 11.7823L88.1431 11.7263L89.4903 13.2935C89.5763 13.3775 89.6909 13.4335 89.8056 13.4335H91.4968C91.5255 13.4335 91.5255 13.4335 91.5255 13.4335V14.1331C91.5255 14.357 91.6974 14.5249 91.9268 14.5249H94.1912C94.4206 14.5249 94.5925 14.357 94.5925 14.1331V11.9782C94.6212 11.7543 94.4492 11.5864 94.2199 11.5864ZM93.8186 13.7973H92.3854V12.398H93.8186V13.7973Z" fill="black"/>
<path d="M97.6883 8.0321H95.4238V10.243H97.6883V8.0321Z" fill="black"/>
<path d="M97.6883 7.64028H95.4238C95.1945 7.64028 95.0225 7.80819 95.0225 8.03208V8.73174H80.031C79.8017 8.73174 79.601 8.89966 79.601 9.12355C79.601 9.34744 79.8017 9.51536 80.031 9.51536H94.9938V10.215C94.9938 10.4389 95.1658 10.6068 95.3951 10.6068H97.6596C97.8889 10.6068 98.0609 10.4389 98.0609 10.215V8.0041C98.0896 7.80819 97.9176 7.64028 97.6883 7.64028ZM97.2583 9.8512H95.8251V8.45188H97.2583V9.8512Z" fill="#0EC0C0"/>
<path d="M89.6336 15.7283H87.3691V17.9393H89.6336V15.7283Z" fill="black"/>
<path d="M89.6336 15.3365H87.5411L85.2766 13.1256C85.1906 13.0416 85.1046 13.0136 84.99 13.0136H82.8115C82.5821 13.0136 82.4102 13.1816 82.4102 13.4055C82.4102 13.6293 82.5821 13.7973 82.8115 13.7973H84.818L86.9391 15.8962V17.9392C86.9391 18.1631 87.1111 18.3311 87.3404 18.3311H89.6049C89.8342 18.3311 90.0062 18.1631 90.0062 17.9392V15.7283C90.0349 15.5324 89.8629 15.3365 89.6336 15.3365ZM87.7991 17.5474V16.1201H89.2609V17.5474H87.7991Z" fill="#0EC0C0"/>
<path d="M89.6336 0.419784H87.3691V2.6307H89.6336V0.419784Z" fill="black"/>
<path d="M89.6336 0H87.3691C87.1398 0 86.9678 0.167918 86.9678 0.391809V2.4628L84.8466 4.56177H82.8401C82.6108 4.56177 82.4388 4.72969 82.4388 4.95358C82.4388 5.17747 82.6108 5.34539 82.8401 5.34539H85.0186C85.1333 5.34539 85.2193 5.28942 85.3053 5.23344L87.5984 2.99454H89.6623C89.8916 2.99454 90.0636 2.82662 90.0636 2.60273V0.391809C90.0349 0.195905 89.8629 0 89.6336 0ZM89.2323 2.21092H87.7991V0.811604H89.2323V2.21092Z" fill="#0EC0C0"/>
<path d="M41.5634 0.139928H38.7829C36.3751 0.139928 35.0566 1.34334 35.0566 3.49829V14.9447C35.0566 17.1276 36.3751 18.3031 38.7829 18.3031H41.5634C43.9712 18.3031 45.2898 17.0996 45.2898 14.9447V3.49829C45.2898 1.34334 43.9712 0.139928 41.5634 0.139928ZM41.764 14.357C41.764 14.8607 41.5061 15.0846 40.9328 15.0846H39.4995C38.9263 15.0846 38.6683 14.8607 38.6683 14.357V4.11399C38.6683 3.61023 38.9549 3.38634 39.4995 3.38634H40.9328C41.5061 3.38634 41.764 3.63822 41.764 4.11399V14.357Z" fill="black"/>
<path d="M65.9568 0.139928H63.7783C63.4343 0.139928 63.205 0.307847 63.119 0.671669L60.8545 11.9222L58.59 0.671669C58.504 0.335833 58.2747 0.167916 57.9308 0.167916H55.7523C55.5229 0.167916 55.3796 0.223888 55.265 0.36382C55.179 0.475765 55.1503 0.643684 55.179 0.867574L59.02 17.8833C59.106 18.2191 59.3353 18.387 59.6793 18.387H61.9724C62.3164 18.387 62.5457 18.2191 62.6317 17.8553L66.5301 0.8116C66.5874 0.615696 66.5587 0.447779 66.4441 0.307848C66.3294 0.195902 66.1861 0.139928 65.9568 0.139928Z" fill="black"/>
<path d="M10.1472 7.72422V7.64026C10.1472 7.58429 10.1472 7.50033 10.1472 7.44436V3.49829C10.1472 1.31535 8.91463 0.139928 6.70747 0.139928H0.515959C0.200651 0.139928 0 0.335833 0 0.643683V17.7993C0 18.1071 0.200651 18.331 0.515959 18.331H2.8951C3.21041 18.331 3.41106 18.1351 3.41106 17.7993V10.8027H4.81562L6.73614 17.8833C6.82213 18.2471 7.08011 18.3031 7.28076 18.3031H9.65991C9.88922 18.3031 10.0039 18.2191 10.0612 18.1351C10.1185 18.0512 10.1759 17.9392 10.1185 17.7153L8.08336 10.5229C8.54199 10.4109 8.94329 10.215 9.2586 9.93514C9.80323 9.45937 10.0899 8.70374 10.1472 7.72422ZM6.73614 6.82866C6.73614 7.33241 6.47816 7.58429 5.9622 7.58429H3.43973V3.38634H5.99086C6.50682 3.38634 6.7648 3.63822 6.7648 4.14197V6.82866H6.73614Z" fill="black"/>
<path d="M56.5835 17.6594L56.0962 15.4764C56.0962 15.4484 56.0389 15.2525 55.8956 15.1406C55.8669 15.1126 55.8383 15.1126 55.8096 15.1126C55.7809 15.0846 55.7523 15.0846 55.7236 15.0846C55.7236 15.0846 55.6949 15.0846 55.6089 15.0846H50.822V0.643683C50.822 0.335833 50.6213 0.139928 50.306 0.139928H47.8982C47.5829 0.139928 47.3823 0.335833 47.3823 0.643683V17.8273C47.3823 18.1351 47.5829 18.331 47.8982 18.331H56.0962C56.2109 18.331 56.2969 18.3031 56.3829 18.2751C56.5262 18.1911 56.5835 18.0792 56.5835 18.0232C56.5835 17.9672 56.5835 17.9112 56.5835 17.7993C56.5835 17.7433 56.5835 17.6874 56.5835 17.6594Z" fill="black"/>
<path d="M22.1003 17.7993C22.1003 17.7433 22.0716 17.7153 22.0716 17.6873L21.5843 15.4764C21.5556 15.3365 21.4983 15.2525 21.4123 15.1966L21.3836 15.1686C21.355 15.1406 21.3263 15.1406 21.2977 15.1406C21.269 15.1126 21.2403 15.1126 21.2117 15.1126C21.2117 15.1126 21.183 15.1126 21.097 15.1126H15.4788V10.8587H19.6924C20.0078 10.8587 20.2084 10.6628 20.2084 10.3269V8.11603C20.2084 7.78019 20.0078 7.58429 19.6924 7.58429H15.5074V3.41433H21.0683C21.4123 3.41433 21.5843 3.21842 21.5843 2.88259V0.643683C21.5843 0.307847 21.4123 0.139928 21.0683 0.139928H12.6697C12.383 0.139928 12.1824 0.335833 12.1824 0.643683V17.8273C12.1824 18.1351 12.383 18.331 12.6697 18.331H21.6416C21.7563 18.331 21.8423 18.3031 21.9283 18.2751C22.0429 18.2191 22.1003 18.1071 22.1289 18.0232C22.1289 17.9392 22.1289 17.8833 22.1003 17.7993Z" fill="black"/>
<path d="M29.6103 0.139928H27.0305C24.7947 0.139928 23.5908 1.34334 23.5908 3.49829V9.12354C23.5908 9.59931 23.8488 9.90715 24.3074 10.0751L29.639 11.7263V14.4689C29.639 14.9447 29.4097 15.1686 28.8651 15.1686H27.7758C27.2598 15.1686 27.0019 14.9447 27.0019 14.4409V13.1536C27.0019 13.0976 27.0019 13.0696 27.0019 13.0696C27.0019 13.0416 27.0019 13.0136 26.9732 12.9857C26.9732 12.9857 26.9445 12.9577 26.9445 12.9017C26.8299 12.7618 26.6292 12.7058 26.6006 12.7058L24.3074 12.23C24.2787 12.23 24.2214 12.202 24.1641 12.202C24.0781 12.202 24.0208 12.174 23.9348 12.202C23.8774 12.202 23.7628 12.258 23.6481 12.4259C23.6195 12.5099 23.5908 12.5938 23.5908 12.7058V15.0566C23.5908 17.1556 24.8234 18.3031 27.0305 18.3031H29.6103C31.8462 18.3031 33.0501 17.1556 33.0501 15.0566V10.0751C33.0501 9.62729 32.8207 9.31944 32.3335 9.12354L27.0019 7.47234V4.11399C27.0019 3.63822 27.2598 3.35835 27.7758 3.35835H28.8651C29.381 3.35835 29.639 3.58225 29.639 4.11399V5.98907C29.639 6.04504 29.639 6.07303 29.639 6.07303C29.639 6.10102 29.639 6.129 29.6677 6.15699C29.6677 6.15699 29.6963 6.18497 29.6963 6.24095C29.811 6.40886 30.0403 6.46484 30.0403 6.43685L32.3335 6.91262C32.3621 6.91262 32.4194 6.9406 32.4768 6.9406C32.5628 6.9406 32.6201 6.96859 32.7061 6.9406C32.7634 6.9406 32.8781 6.88463 32.9927 6.71671C33.0214 6.63275 33.0501 6.54879 33.0501 6.43685V3.49829C33.0501 1.31535 31.8175 0.139928 29.6103 0.139928Z" fill="black"/>
<path d="M78.5691 0.447779C78.5405 0.307848 78.3971 0.195902 78.3685 0.195902C78.2825 0.139929 78.1965 0.139928 78.0818 0.139928H69.0525C68.7659 0.139928 68.5653 0.335833 68.5653 0.643683V17.8273C68.5653 18.1351 68.7659 18.331 69.0525 18.331H78.0818C78.1965 18.331 78.2825 18.3031 78.3685 18.2751C78.5118 18.1911 78.5691 18.0792 78.5691 18.0232C78.5691 17.9672 78.5691 17.9112 78.5691 17.8273C78.5691 17.7713 78.5405 17.7433 78.5405 17.7153L78.0532 15.5324C78.0532 15.5044 77.9958 15.3085 77.8525 15.1966C77.8239 15.1686 77.7952 15.1686 77.7665 15.1686C77.7379 15.1406 77.7092 15.1406 77.6805 15.1406C77.6805 15.1406 77.6519 15.1406 77.5659 15.1406H71.8617V10.8587H76.0753C76.3906 10.8587 76.5913 10.6628 76.5913 10.3269V8.11603C76.5913 7.78019 76.3906 7.58429 76.0753 7.58429H71.8617V3.41433H77.4226C77.4799 3.41433 77.5085 3.41433 77.5659 3.41433C77.6232 3.41433 77.6232 3.41433 77.6519 3.41433C77.6805 3.41433 77.7092 3.38634 77.7379 3.38634C77.7379 3.38634 77.7665 3.35835 77.8239 3.35835C77.9672 3.24641 78.0245 3.05051 78.0245 3.02252C78.1965 2.29488 78.3398 1.56723 78.5118 0.839586C78.5118 0.8116 78.5405 0.727641 78.5405 0.671669C78.5691 0.531737 78.5691 0.503752 78.5691 0.447779Z" fill="black"/>
<path d="M79.0851 17.2396L79.0564 17.4075C79.0564 17.4075 79.0564 17.4355 79.0851 17.4355H79.2571V18.3031C79.2571 18.3311 79.2571 18.3311 79.2857 18.3311H79.4291C79.4577 18.3311 79.4577 18.3311 79.4577 18.3031V17.4355H79.6297C79.6584 17.4355 79.6584 17.4355 79.6584 17.4075V17.2676C79.6584 17.2676 79.6584 17.2396 79.6297 17.2396H79.0851Z" fill="black"/>
<path d="M80.3177 17.2396C80.289 17.2396 80.289 17.2396 80.289 17.2676L80.1457 17.9392L80.0024 17.2676C80.0024 17.2396 80.0024 17.2396 79.9737 17.2396H79.8017C79.773 17.2396 79.773 17.2396 79.773 17.2676V18.3031C79.773 18.3311 79.773 18.3311 79.8017 18.3311H79.9164C79.945 18.3311 79.945 18.3311 79.945 18.3031V17.6874L80.0883 18.3031C80.0883 18.3311 80.0884 18.3311 80.117 18.3311H80.1743C80.203 18.3311 80.203 18.3311 80.203 18.3031L80.3463 17.6874V18.3031C80.3463 18.3311 80.3463 18.3311 80.375 18.3311H80.4897C80.5183 18.3311 80.5183 18.3311 80.5183 18.3031V17.2676C80.5183 17.2396 80.5183 17.2396 80.4897 17.2396H80.3177Z" fill="black"/>
</svg>
