<svg width="108" height="70" viewBox="0 0 108 70" fill="none" xmlns="http://www.w3.org/2000/svg">
<g clip-path="url(#clip0_1501_52825)">
<path d="M60.8667 4.89453H57.9802C57.6879 4.89453 57.4687 5.11371 57.4687 5.40594V6.42877C57.4322 6.42877 57.4322 6.42877 57.4322 6.42877H55.2764C55.1303 6.42877 54.9841 6.50183 54.8745 6.61142L53.1572 8.69361H44.242C43.9497 8.69361 43.7305 8.91279 43.7305 9.20507C43.7305 9.4973 43.9497 9.71648 44.242 9.71648H53.3765C53.5226 9.71648 53.6688 9.64342 53.7784 9.53383L55.4956 7.4516H57.4322C57.4687 7.4516 57.4687 7.4516 57.4687 7.4516V8.29179C57.4687 8.58403 57.6879 8.8032 57.9802 8.8032H60.8667C61.159 8.8032 61.3782 8.58403 61.3782 8.29179V5.40594C61.3782 5.11371 61.159 4.89453 60.8667 4.89453ZM60.3552 7.78037H58.5283V5.95389H60.3552V7.78037Z" fill="white"/>
<path d="M60.8673 15.1233H57.9808C57.6885 15.1233 57.4693 15.3425 57.4693 15.6347V16.548C57.4328 16.548 57.4328 16.548 57.4328 16.548H55.4963L53.779 14.4658C53.6694 14.3562 53.5232 14.2832 53.3771 14.2832H53.0848L44.5349 14.3562C44.2426 14.3562 44.0234 14.5754 44.0234 14.8676C44.0234 15.1599 44.2426 15.379 44.5349 15.379L53.1213 15.306L54.8386 17.3516C54.9482 17.4612 55.0943 17.5343 55.2405 17.5343H57.3962C57.4328 17.5343 57.4328 17.5343 57.4328 17.5343V18.4475C57.4328 18.7398 57.652 18.959 57.9443 18.959H60.8308C61.1231 18.959 61.3423 18.7398 61.3423 18.4475V15.6347C61.3789 15.3425 61.1596 15.1233 60.8673 15.1233ZM60.3558 18.0092H58.5289V16.1827H60.3558V18.0092Z" fill="white"/>
<path d="M65.2879 10.4844H62.4014V13.3702H65.2879V10.4844Z" fill="white"/>
<path d="M65.2878 9.97266H62.4013C62.109 9.97266 61.8898 10.1918 61.8898 10.484V11.3973H42.7805C42.4882 11.3973 42.2324 11.6165 42.2324 11.9087C42.2324 12.2009 42.4882 12.4201 42.7805 12.4201H61.8532V13.3333C61.8532 13.6256 62.0725 13.8448 62.3648 13.8448H65.2512C65.5435 13.8448 65.7628 13.6256 65.7628 13.3333V10.4475C65.7993 10.1918 65.5801 9.97266 65.2878 9.97266ZM64.7397 12.8585H62.9128V11.032H64.7397V12.8585Z" fill="#0EC0C0"/>
<path d="M55.0212 20.5293H52.1348V23.4152H55.0212V20.5293Z" fill="white"/>
<path d="M55.0211 20.0183H52.3538L49.4673 17.1324C49.3577 17.0228 49.2481 16.9863 49.1019 16.9863H46.325C46.0327 16.9863 45.8135 17.2055 45.8135 17.4977C45.8135 17.79 46.0327 18.0092 46.325 18.0092H48.8827L51.5865 20.7489V23.4155C51.5865 23.7078 51.8057 23.927 52.098 23.927H54.9845C55.2768 23.927 55.4961 23.7078 55.4961 23.4155V20.5297C55.5326 20.274 55.3134 20.0183 55.0211 20.0183ZM52.6826 22.9041V21.0411H54.5461V22.9041H52.6826Z" fill="#0EC0C0"/>
<path d="M55.0212 0.547852H52.1348V3.4337H55.0212V0.547852Z" fill="white"/>
<path d="M55.0216 0H52.1351C51.8428 0 51.6235 0.219179 51.6235 0.511416V3.21461L48.9197 5.95434H46.3621C46.0698 5.95434 45.8506 6.17352 45.8506 6.46576C45.8506 6.75799 46.0698 6.97717 46.3621 6.97717H49.139C49.2851 6.97717 49.3947 6.90411 49.5043 6.83105L52.4274 3.90868H55.0581C55.3504 3.90868 55.5696 3.6895 55.5696 3.39726V0.511416C55.5331 0.255708 55.3139 0 55.0216 0ZM54.51 2.88585H52.6831V1.05936H54.51V2.88585Z" fill="#0EC0C0"/>
<path d="M23 62.9269V62.6869L24.35 61.2769V42.9469L23 41.5069V41.2969H31.61C36.38 41.2969 39.11 43.3969 39.11 47.1169C39.11 50.1469 37.13 52.0969 33.92 52.6069C35.63 53.0269 37.04 54.0169 37.91 56.7769L39.26 61.2769L41.03 62.6869V62.9269H37.19L35.63 57.4069C34.64 54.0169 33.11 52.9969 29.99 52.9969H26.69V61.2769L28.13 62.6869V62.9269H23ZM31.37 51.4969C34.58 51.4969 36.65 49.9069 36.65 47.1169C36.65 44.2969 34.58 42.7969 31.37 42.7969H26.69V51.4969H31.37ZM46.4417 61.2169L47.7917 62.6869V62.9269H42.7517V62.6869L44.1017 61.2169V43.0069L42.7517 41.5069V41.2969H47.7917V41.5069L46.4417 43.0069V61.2169ZM55.5755 62.9269V62.6869L56.9255 61.2169V42.7069L51.9755 42.9469L49.8155 44.6869H49.5755L49.9955 41.2969H66.1655L66.6155 44.6869H66.3755L64.1855 42.9469L59.2655 42.7069V61.2169L60.6155 62.6869V62.9269H55.5755ZM63.8689 62.9269V62.7169L65.4889 61.2469L73.2589 41.2969H74.9389L82.7989 61.2169L84.4189 62.7169V62.9269H79.2289L79.1989 62.7169L80.2789 61.2769L78.3889 56.4169H69.1489L67.3189 61.3069L68.3389 62.7169L68.3089 62.9269H63.8689ZM69.7189 54.9169H77.8189L73.7089 44.3569L69.7189 54.9169Z" fill="white"/>
</g>
<defs>
<clipPath id="clip0_1501_52825">
<rect width="108" height="70" fill="white"/>
</clipPath>
</defs>
</svg>
