<svg width="16" height="16" viewBox="0 0 16 16" fill="none" xmlns="http://www.w3.org/2000/svg">
<path fill-rule="evenodd" clip-rule="evenodd" d="M8.04679 1C4.16908 1 1 4.25267 1 8.28272C1 10.2875 1.78735 12.2309 3.20458 13.6016C3.69667 14.0925 4.46434 14.1334 5.01549 13.7038C6.78702 12.3332 9.22781 12.3332 10.9993 13.7038C11.5505 14.1334 12.3182 14.0925 12.8103 13.6016C15.625 10.8194 15.7431 6.1961 13.0661 3.27074C11.767 1.83874 9.93643 1.02046 8.04679 1ZM8.00742 11.9445C6.11778 12.0059 4.54308 10.4512 4.50371 8.50775C4.50371 8.44637 4.50371 8.385 4.50371 8.32363C4.50371 6.31884 6.07841 4.68227 8.00742 4.68227C9.93643 4.68227 11.5111 6.31884 11.5111 8.32363C11.5702 10.2875 10.0742 11.9036 8.20426 11.965C8.12552 11.9445 8.06647 11.9445 8.00742 11.9445Z" fill="#0EA215"/>
</svg>
