<svg width="16" height="16" viewBox="0 0 16 16" fill="none" xmlns="http://www.w3.org/2000/svg">
<path d="M15.299 14.5697L8.68342 1.33859C8.55317 1.05209 8.42296 1 8.26667 1C8.13646 1 7.98017 1.05209 7.82392 1.31255C6.88625 2.79713 6.46954 4.51613 6.46954 6.31325C6.46954 8.81362 7.74575 11.1577 9.62104 14.9343C9.82942 15.351 9.98567 15.4292 10.3503 15.4292H14.9343C15.2729 15.4292 15.4552 15.299 15.4552 15.0385C15.4552 14.9083 15.4292 14.8301 15.299 14.5697ZM5.68817 8.31875C5.16725 7.53742 5.011 7.48529 4.88075 7.48529C4.75054 7.48529 4.67242 7.53742 4.438 8.00621L1.13023 14.6217C1.02605 14.8301 1 14.9083 1 15.0125C1 15.2208 1.18232 15.4292 1.573 15.4292H6.23513C6.54767 15.4292 6.78208 15.1687 6.91229 14.6738C7.06858 14.0487 7.12067 13.5018 7.12067 12.8507C7.12067 11.0275 6.31325 9.25642 5.68817 8.31875Z" fill="#0075FF"/>
</svg>
