<svg width="15" height="16" viewBox="0 0 15 16" fill="none" xmlns="http://www.w3.org/2000/svg">
<path d="M0.509181 11.9233C0.358277 12.154 0.21015 12.3863 0.0648287 12.6204C-0.0616083 12.8252 0.00168323 13.0917 0.212995 13.2148L3.10967 14.937C3.32113 15.0599 3.59558 14.9982 3.7226 14.7934C3.85859 14.5583 3.99954 14.3258 4.14537 14.0963C5.28754 12.272 6.45011 12.4769 8.52196 13.4406L11.3978 14.752C11.6301 14.8548 11.8841 14.752 11.9896 14.5471L13.3642 11.5342C13.4695 11.3289 13.3642 11.0628 13.1521 10.9601C12.5392 10.6934 11.3345 10.1398 10.2772 9.62759C6.36597 7.80282 3.04579 7.92589 0.509181 11.9233Z" fill="url(#paint0_linear_444_115649)"/>
<path d="M13.4906 5.07668C13.6415 4.84602 13.7897 4.61365 13.935 4.37964C14.0619 4.17476 13.9981 3.90826 13.7868 3.78519L10.8901 2.063C10.6787 1.94007 10.4042 2.00182 10.2772 2.20657C10.1414 2.44186 10.0005 2.67431 9.85443 2.90375C8.71227 4.72795 7.54969 4.52306 5.47785 3.55939L2.60203 2.24797C2.36971 2.14524 2.11626 2.24797 2.01024 2.45285L0.636202 5.46583C0.530327 5.67114 0.636201 5.93778 0.847659 6.03994C1.46059 6.30657 2.6659 6.86019 3.7226 7.37241C7.63457 9.17683 10.954 9.07397 13.4906 5.07668Z" fill="url(#paint1_linear_444_115649)"/>
<defs>
<linearGradient id="paint0_linear_444_115649" x1="13.8842" y1="16.657" x2="2.79744" y2="13.224" gradientUnits="userSpaceOnUse">
<stop stop-color="#0052CC"/>
<stop offset="0.918" stop-color="#2380FB"/>
<stop offset="1" stop-color="#2684FF"/>
</linearGradient>
<linearGradient id="paint1_linear_444_115649" x1="0.705172" y1="1.16531" x2="9.31542" y2="6.26819" gradientUnits="userSpaceOnUse">
<stop stop-color="#0052CC"/>
<stop offset="0.918" stop-color="#2380FB"/>
<stop offset="1" stop-color="#2684FF"/>
</linearGradient>
</defs>
</svg>
