<svg width="16" height="16" viewBox="0 0 16 16" fill="none" xmlns="http://www.w3.org/2000/svg">
<path d="M7.97813 1.00006H13.236C13.4683 0.998188 13.6987 1.0426 13.9137 1.13072C14.1287 1.21883 14.324 1.34887 14.4882 1.51325C14.6524 1.67764 14.7822 1.87308 14.8701 2.08817C14.958 2.30325 15.0021 2.53369 15 2.76603V8.02193C15 11.8767 11.8767 15.0001 8.02187 15.0001H7.98206C7.06544 15.0009 6.15764 14.821 5.31055 14.4708C4.46347 14.1206 3.69372 13.6068 3.04529 12.9589C2.39687 12.3111 1.88248 11.5417 1.53153 10.695C1.18059 9.84817 0.999971 8.94053 1 8.0239C1 4.15815 4.11806 1.03987 7.97813 1.00006Z" fill="#25C16F"/>
<path d="M7.97813 4.11854C6.20778 4.11854 4.77256 5.55354 4.77256 7.3241V9.50373C4.78525 10.0871 5.25512 10.557 5.83853 10.5697H6.74525V8.06588H5.52025V7.36588C5.59462 6.0477 6.68553 5.01651 8.00612 5.01651C9.32672 5.01651 10.415 6.04573 10.4894 7.36588V8.06588H9.24688V10.5714H10.0661V10.6113C10.0573 11.1524 9.62094 11.5891 9.08172 11.5956H8.10325C8.02362 11.5956 7.93613 11.6354 7.93613 11.7149C7.93805 11.7586 7.95628 11.8 7.98721 11.8309C8.01815 11.8618 8.05954 11.8801 8.10325 11.882H9.08763C9.78872 11.8776 10.3559 11.3104 10.3603 10.6093V10.5297C10.5945 10.4769 10.8035 10.3455 10.9526 10.1574C11.1017 9.96921 11.1817 9.73567 11.1795 9.49563V7.36588C11.2193 5.56032 9.78741 4.12051 7.97397 4.12051L7.97813 4.11854Z" fill="white"/>
</svg>
