<svg width="16" height="16" viewBox="0 0 16 16" fill="none" xmlns="http://www.w3.org/2000/svg">
<g clip-path="url(#clip0_120_24312)">
<g clip-path="url(#clip1_120_24312)">
<path d="M7.9625 9.14997C10.4961 9.14997 12.55 7.09608 12.55 4.56248C12.55 2.02887 10.4961 -0.0250244 7.9625 -0.0250244C5.42889 -0.0250244 3.375 2.02887 3.375 4.56248C3.375 7.09608 5.42889 9.14997 7.9625 9.14997Z" fill="#036C70"/>
<path d="M11.7875 12.9875C14.1279 12.9875 16.025 11.0903 16.025 8.75001C16.025 6.40971 14.1279 4.51251 11.7875 4.51251C9.44724 4.51251 7.55005 6.40971 7.55005 8.75001C7.55005 11.0903 9.44724 12.9875 11.7875 12.9875Z" fill="#1A9BA1"/>
<path d="M8.5625 16.0125C10.3574 16.0125 11.8125 14.5574 11.8125 12.7625C11.8125 10.9676 10.3574 9.51251 8.5625 9.51251C6.76757 9.51251 5.3125 10.9676 5.3125 12.7625C5.3125 14.5574 6.76757 16.0125 8.5625 16.0125Z" fill="#37C6D0"/>
<path d="M7.43745 12.15H0.812451C0.374951 12.15 0.0124512 11.7875 0.0124512 11.35V4.82502C0.0124512 4.38752 0.374951 4.02502 0.812451 4.02502H7.43745C7.87495 4.02502 8.23745 4.38752 8.23745 4.82502V11.35C8.23745 11.7875 7.88745 12.15 7.43745 12.15Z" fill="#04878B"/>
<path d="M2.78748 9.48751C3.04998 9.63751 3.46248 9.77501 3.88748 9.77501C4.41248 9.77501 4.71248 9.52501 4.71248 9.16251C4.71248 8.82501 4.48748 8.62501 3.91248 8.41251C3.16248 8.15001 2.67498 7.75001 2.67498 7.11251C2.67498 6.37501 3.29998 5.82501 4.28748 5.82501C4.77498 5.82501 5.13748 5.93751 5.37498 6.05001L5.17498 6.71251C5.01248 6.62501 4.69998 6.50001 4.27498 6.50001C3.74998 6.50001 3.52498 6.77501 3.52498 7.03751C3.52498 7.38751 3.78748 7.53751 4.39998 7.77501C5.18748 8.07501 5.56248 8.46251 5.56248 9.10001C5.56248 9.82501 5.01248 10.4375 3.83748 10.4375C3.34998 10.4375 2.84998 10.3 2.59998 10.1625L2.78748 9.48751Z" fill="white"/>
<path opacity="0.2" d="M8.23745 4.75C8.23745 4.775 8.23745 4.8 8.23745 4.825V11.35C8.23745 11.7875 7.87495 12.15 7.43745 12.15H5.34995L5.32495 12.8625H8.12495C8.56245 12.8625 8.92495 12.5 8.92495 12.0625V5.5375C8.91245 5.1375 8.62495 4.8125 8.23745 4.75Z" fill="black"/>
</g>
</g>
<defs>
<clipPath id="clip0_120_24312">
<rect width="16" height="16" fill="white"/>
</clipPath>
<clipPath id="clip1_120_24312">
<rect width="16" height="16" fill="white"/>
</clipPath>
</defs>
</svg>
